<?xml version="1.0" encoding="UTF-8"?>
<!DOCTYPE svg PUBLIC "-//W3C//DTD SVG 1.1//EN" "http://www.w3.org/Graphics/SVG/1.1/DTD/svg11.dtd">
<!-- Creator: CorelDRAW -->
<svg xmlns="http://www.w3.org/2000/svg" xml:space="preserve" width="504px" height="270px" version="1.1" style="shape-rendering:geometricPrecision; text-rendering:geometricPrecision; image-rendering:optimizeQuality; fill-rule:evenodd; clip-rule:evenodd"
viewBox="0 0 116.64 62.54"
 xmlns:xlink="http://www.w3.org/1999/xlink"
 xmlns:xodm="http://www.corel.com/coreldraw/odm/2003">
 <defs>
  <style type="text/css">
   <![CDATA[
    .fil1 {fill:#22C55E}
    .fil0 {fill:#B3B3B3}
   ]]>
  </style>
 </defs>
 <g id="Camada_x0020_1">
  <metadata id="CorelCorpID_0Corel-Layer"/>
  <path class="fil0" d="M54.21 21.27c0.54,-0.12 1.28,-0.36 1.82,-0.34 0.61,0.02 1.19,0.31 1.79,0.37l-0.24 9.81c-0.4,0.1 -2.56,0.08 -2.97,-0.01l-0.4 -9.83zm7.04 9.4c-0.38,0.15 -2.23,0.46 -2.52,0.35l0.24 -9.75c1.71,-0.69 1.55,-0.78 3.49,-0.61l-1.21 10.01zm-11.71 -10.03c2.81,-0.25 1.78,0.16 3.51,0.62l0.42 9.82c-0.55,-0.03 -2.08,-0.22 -2.54,-0.4l-1.39 -10.04zm12.85 9.71l1.23 -9.82c0.43,-0.26 0.79,-0.44 1.22,-0.73 0.36,-0.23 0.91,-0.55 1.32,-0.65 0.02,2.49 -0.95,6.91 -1.78,9.42 -0.18,0.54 -0.17,0.83 -0.65,1.19 -0.31,0.23 -0.96,0.5 -1.34,0.59zm-16.84 -11.38c1.88,0.82 1.6,0.95 2.52,1.39 0.47,0.23 0.34,0.35 0.5,1.44 0.09,0.56 0.16,1.14 0.23,1.71 0.29,2.26 0.72,4.6 0.94,6.85 -0.34,-0.01 -1.06,-0.35 -1.36,-0.53 -0.66,-0.4 -0.55,-0.48 -0.78,-1.17 -0.79,-2.35 -1.8,-7.34 -2.05,-9.69zm0.11 -9.28c0.15,0.37 0.22,0.99 0.36,1.43 1.92,6.28 9.92,7.85 15.69,7.59l3.3 -0.31c0.02,0.03 -1.25,0.82 -1.38,0.89 -0.75,0.46 -1.11,0.3 -1.92,0.23 -1.72,-0.15 -2.75,0.92 -3.81,0.73 -0.67,-0.12 -1.14,-0.38 -1.87,-0.4 -0.68,-0.01 -1.26,0.23 -1.91,0.35 -0.82,0.15 -1.13,-0.1 -1.83,-0.39 -1.9,-0.78 -2.76,0.22 -3.96,-0.52 -0.51,-0.3 -0.82,-0.62 -1.39,-0.88 -0.51,-0.23 -1.08,-0.38 -1.39,-0.88 -0.33,-0.5 -0.67,-0.86 -0.97,-1.35 -0.7,-1.1 -0.99,-2.43 -0.74,-3.72 0.19,-1.04 0.85,-2.29 1.82,-2.77zm3.56 -5.05c1.94,-0.29 0.8,0.28 1.61,2.75 0.32,0.97 0.9,2.03 1.61,2.76 1.59,1.64 3.49,2.57 5.71,3.04 1.35,0.3 2.71,0.37 4.09,0.27 1.97,-0.13 2.91,-0.63 3.65,-0.71 1.37,-0.16 2.97,1.72 1.25,3.73 -0.52,0.62 -0.67,0.59 -1.44,0.72 -4.78,0.81 -10.54,0.8 -14.83,-1.75 -1.87,-1.12 -3.29,-2.73 -3.89,-4.86 -0.56,-2.03 -0.41,-5.54 2.24,-5.95zm4.64 -3.26c0.14,3.64 1.71,6.6 5.63,7.01 3.16,0.33 3.75,-0.97 5.24,0.55 0.58,0.59 0.85,1.55 0.8,2.37 -0.05,0.63 -0.29,0.53 -0.87,0.69 -0.42,0.12 -0.86,0.21 -1.28,0.28 -2.99,0.5 -7.68,-0.12 -9.8,-2.51 -0.64,-0.73 -0.89,-0.9 -1.36,-1.83 -0.71,-1.39 -1.01,-3.74 -0.02,-5.1 0.42,-0.56 1.02,-1.16 1.66,-1.46zm5.11 2.95c0.78,0.18 1.52,0.43 2.17,0.9 0.58,0.41 1.11,1.28 1.03,2.01 -1.6,0.33 -3.83,0.19 -5.15,-0.85 -1.23,-0.97 -2.01,-2.66 -2.02,-4.24 1.52,1.17 1.96,1.69 3.97,2.18zm-4.95 -4.29c-0.26,0.19 -0.75,0.41 -1.08,0.62 -0.92,0.58 -2.06,1.92 -2.29,3 -2.71,-0.43 -4.36,1 -4.9,3.58 -0.16,0.79 0.17,1.13 -0.63,1.53 -1.35,0.7 -2.31,2.51 -2.45,4.04 -0.11,1.2 0.16,2.46 0.74,3.52 0.27,0.5 0.65,0.86 0.89,1.27 0.18,0.31 0.25,1.44 0.3,1.86 0.29,2.45 0.73,4.89 1.36,7.27 0.78,2.95 0.68,3.84 3.84,4.75 2.36,0.67 5.4,0.8 7.84,0.68 1.89,-0.1 5.47,-0.43 6.92,-1.73 0.8,-0.72 1.06,-1.99 1.33,-3 0.3,-1.18 0.54,-2.33 0.76,-3.53 0.16,-1.26 0.37,-2.46 0.49,-3.74 0.06,-0.63 0.05,-1.38 0.13,-1.98 0.1,-0.73 0.46,-0.75 0.83,-1.27 0.67,-0.93 1.11,-2.09 0.68,-3.22 -0.41,-1.11 -1.2,-1.56 -2.26,-1.93 0.09,-1.27 0.02,-2.08 -0.72,-3.14 -0.58,-0.83 -1.46,-1.34 -2.51,-1.48 -0.97,-4.54 -4.13,-2.79 -7.02,-5.3 -1.68,-1.47 -1.21,-2.01 -2.25,-1.8z"/>
  <path class="fil1" d="M37.45 46.1c4.49,-1.55 4.51,6.32 1.65,7.34 -4.27,1.52 -4.88,-6.21 -1.65,-7.34zm-1.86 -1.08l-0.05 -1.85 -4.08 -0.01 0 19.37 4.09 0.01 0 -7.56c1.08,0.79 1.14,1.41 2.83,1.69 7.59,1.25 8.98,-11.02 3.73,-13.41 -2.85,-1.3 -4.71,-0.06 -6.52,1.76z"/>
  <path class="fil1" d="M0.68 41.18l8.75 0.07c-0.55,1.19 -6.32,8.56 -7.85,10.62 -1.67,2.22 -1.58,1.48 -1.58,4.42l14.93 0.09 0 -3.36 -9.24 -0.01c0.47,-0.96 6.44,-8.96 7.6,-10.57 1.64,-2.29 1.61,-1.54 1.61,-4.55l-14.22 0.02 0 3.27z"/>
  <path class="fil1" d="M91.41 43.45c-0.38,-0.42 0.09,-0.17 -0.55,-0.3l-4.3 0.01c-0.3,0.73 -3.46,5.62 -3.93,5.98l0 -12.41 -4.09 0.1 0 19.51 4.09 0.04 0 -6.46c1.27,1.09 3.42,5.97 4.52,6.46l4.59 -0.01 -5.01 -7c0.55,-0.82 4.23,-5.73 4.68,-5.92z"/>
  <path class="fil1" d="M61.5 55.75l0.04 -3.7c-2.36,0.83 -4.4,1.7 -6.97,0.6 -4.05,-1.73 -4.13,-8.98 -0.06,-10.93 2.73,-1.31 4.53,-0.41 7.01,0.48l0.02 -3.94c-2.74,-1.26 -7.56,-0.94 -10.1,0.73 -5.57,3.66 -6.04,12.79 -0.26,16.52 2.48,1.61 7.71,1.6 10.32,0.24z"/>
  <path class="fil1" d="M71.47 50.19c0.13,1.27 0.05,2.25 -0.96,3.12 -2.77,2.37 -6.49,-3.22 0.96,-3.12zm-6.78 -6.23l-0.01 2.98c1.33,-0.49 1.97,-1.15 3.61,-1.31 1.89,-0.17 3.1,0.07 3.23,2.16 -3.58,0.38 -8.52,0.48 -8.12,5.39 0.16,1.9 1.47,3.24 3.33,3.5 3.06,0.44 3.9,-1.3 4.69,-2l0.08 1.66 3.87 0.04c0,-2.72 0.56,-9.72 -1.02,-11.7 -2.16,-2.7 -6.88,-2.18 -9.66,-0.72z"/>
  <path class="fil1" d="M24.36 50.22c0.06,1.09 -0.02,2.36 -0.92,3.07 -2.43,1.92 -4.86,-1.35 -2.53,-2.54 0.73,-0.38 2.65,-0.61 3.45,-0.53zm-6.8 -6.33l-0.01 3.08c1.46,-0.64 1.97,-1.18 3.69,-1.34 1.81,-0.16 3.01,0.11 3.14,2.09 -3.5,0.86 -8.62,0.16 -8.11,5.49 0.19,1.98 1.44,3.25 3.4,3.49 2.71,0.32 3.06,-0.72 4.66,-2.03l0.02 1.71 3.89 -0.02c0,-2.95 0.57,-9.35 -1,-11.62 -2.02,-2.94 -6.83,-1.94 -9.68,-0.85z"/>
  <path class="fil1" d="M96.23 48.45c0.56,-3.67 4.69,-4.18 4.84,-0.01l-4.84 0.01zm0.08 -5.26c-0.54,0.55 -2.52,0.99 -3.56,3.63 -2.48,6.22 2.33,12.46 10.91,8.97l-0.06 -2.87c-2.29,1.31 -7.19,1.74 -7.31,-1.99l8.57 0c0,-6.04 -1.76,-9.1 -8.55,-7.74z"/>
  <path class="fil1" d="M106.43 52.63l-0.02 3.36c2.75,1.31 8.81,1.16 9.95,-2.31 1.91,-5.78 -6.84,-4.82 -5.82,-7.35 0.88,-1.62 3.92,-0.29 5.22,0.09l0 -3.11c-1.9,-0.36 -2.62,-0.54 -4.65,-0.48 -1.94,0.5 -3.6,0.66 -4.44,2.75 -0.85,2.11 0.09,3.99 2,4.95 0.88,0.45 5.34,1.37 3.6,2.94 -1.23,1.11 -4.78,0.19 -5.84,-0.84z"/>
 </g>
</svg>
