<?xml version="1.0" encoding="UTF-8"?>
<!DOCTYPE svg PUBLIC "-//W3C//DTD SVG 1.1//EN" "http://www.w3.org/Graphics/SVG/1.1/DTD/svg11.dtd">
<!-- Creator: CorelDRAW -->
<svg xmlns="http://www.w3.org/2000/svg" xml:space="preserve" width="21.5053mm" height="21.5053mm" version="1.1" style="shape-rendering:geometricPrecision; text-rendering:geometricPrecision; image-rendering:optimizeQuality; fill-rule:evenodd; clip-rule:evenodd"
viewBox="0 0 4810.26 4810.26"
 xmlns:xlink="http://www.w3.org/1999/xlink"
 xmlns:xodm="http://www.corel.com/coreldraw/odm/2003">
 <defs>
  <style type="text/css">
   <![CDATA[
    .fil0 {fill:#22C55E}
    .fil1 {fill:white}
   ]]>
  </style>
 </defs>
 <g id="Camada_x0020_1">
  <metadata id="CorelCorpID_0Corel-Layer"/>
  <rect class="fil0" x="-0.01" y="-0" width="4810.26" height="4810.26" rx="346.34" ry="378.75"/>
  <g id="_3067855527088">
   <path class="fil1" d="M2264.78 2063.81c18.72,-4.12 43.98,-12.32 62.34,-11.79 20.8,0.6 40.53,10.6 60.91,12.66l-8.23 335.05c-13.62,3.2 -87.21,2.68 -101.37,-0.34l-13.64 -335.58zm240.36 320.62c-12.88,5.21 -75.98,15.79 -86.09,12.24l8.25 -332.79c58.29,-23.6 53.03,-26.86 119.31,-21.14l-41.47 341.69zm-399.67 -342.16c95.85,-8.5 60.91,5.52 119.94,21l14.29 335.34c-18.86,-1.19 -71.11,-7.52 -86.88,-13.8l-47.35 -342.54zm438.68 331.33l41.83 -335.2c14.72,-8.75 27.11,-15.08 41.87,-24.81 12.26,-8.05 30.87,-18.7 44.87,-22.37 0.72,85.11 -32.37,235.87 -60.64,321.85 -6.02,18.34 -5.73,28.34 -22.14,40.46 -10.69,7.92 -32.79,17.04 -45.79,20.06zm-575.01 -388.24c64.44,27.83 54.76,32.28 86.12,47.31 16.13,7.74 11.52,11.85 17.16,49.12 2.91,19.3 5.39,39.01 7.85,58.4 9.77,77.28 24.65,156.84 32.16,233.88 -11.63,-0.34 -36.33,-11.99 -46.66,-18.3 -22.48,-13.69 -18.54,-16.24 -26.51,-39.84 -27.02,-80.03 -61.49,-250.61 -70.12,-330.57zm4.03 -317c4.94,12.82 7.49,33.93 12.1,48.99 65.58,214.22 338.69,267.94 535.51,258.88l112.87 -10.36c0.47,0.87 -42.77,27.8 -47.08,30.4 -25.7,15.46 -37.91,10.18 -65.78,7.69 -58.49,-5.19 -93.74,31.36 -129.85,24.81 -22.84,-4.14 -38.94,-13 -63.79,-13.47 -23.44,-0.45 -42.97,7.63 -65.38,11.77 -27.85,5.14 -38.43,-3.33 -62.38,-13.2 -64.75,-26.64 -94.12,7.45 -135.35,-17.69 -17.13,-10.47 -27.94,-21.05 -47.42,-30.02 -17.25,-7.94 -36.68,-13.11 -47.44,-29.97 -11.03,-17.27 -22.66,-29.37 -33.13,-46.14 -23.62,-37.78 -33.55,-83.12 -25.16,-127.14 6.69,-35.25 29.21,-77.93 62.29,-94.55zm121.28 -172.19c66.3,-10.18 27.51,9.55 55.16,93.68 10.92,33.17 30.51,69.21 54.94,94.41 54.11,55.85 119.18,87.46 194.82,103.76 46.12,9.95 92.65,12.44 139.66,9.19 67.33,-4.65 99.42,-21.63 124.39,-24.49 47.11,-5.37 101.51,58.85 42.88,127.54 -17.87,20.96 -22.93,20.04 -49.32,24.54 -163.11,27.74 -359.5,27.45 -505.96,-59.83 -64.06,-38.18 -112.51,-93.14 -132.78,-165.81 -19.28,-69.14 -14.25,-189.1 76.21,-202.99zm158.52 -111.28c4.67,124.16 58.4,225.09 192.27,239.07 107.68,11.25 127.88,-32.84 178.63,18.86 19.88,20.27 29.21,52.94 27.31,80.86 -1.45,21.41 -9.75,18.19 -29.59,23.73 -14.32,4 -29.17,7.07 -43.84,9.53 -101.8,17.13 -262.06,-4.32 -334.22,-85.87 -22.01,-24.87 -30.38,-30.64 -46.55,-62.25 -24.34,-47.53 -34.51,-127.94 -0.63,-174.2 14.11,-19.26 34.83,-39.52 56.61,-49.72zm174.4 100.41c26.75,6.44 51.83,14.92 74.19,30.93 19.64,14.05 37.91,43.75 35.07,68.6 -54.58,11.3 -130.78,6.35 -175.9,-29.15 -41.87,-32.97 -68.58,-90.57 -68.98,-144.74 51.98,39.88 67.13,57.91 135.62,74.35zm-169.06 -146.13c-8.75,6.51 -25.68,13.76 -36.91,20.96 -31.14,19.93 -70.06,65.49 -78.13,102.4 -92.27,-14.45 -148.84,34.07 -167.15,122.2 -5.61,27 5.79,38.47 -21.43,52.43 -46.21,23.71 -78.85,85.62 -83.7,137.92 -3.76,40.69 5.59,83.99 25.12,119.89 9.39,17.27 22.21,29.53 30.35,43.37 6.22,10.56 8.59,49.16 10.33,63.64 9.98,83.57 25.05,166.8 46.61,248.15 26.66,100.7 22.95,131.12 131.05,162.01 80.35,22.95 184.36,27.53 267.54,23.26 64.62,-3.31 186.55,-14.76 236.18,-59.1 27.36,-24.45 36.21,-67.8 45.23,-102.33 10.51,-40.19 18.68,-79.58 26.26,-120.41 5.48,-43.15 12.41,-84.17 16.49,-127.88 2.01,-21.5 1.72,-47.08 4.54,-67.55 3.44,-24.9 15.52,-25.57 28.5,-43.39 22.86,-31.47 37.6,-71.13 23.13,-109.8 -14.11,-37.71 -41.11,-53.26 -77.35,-65.69 3.2,-43.35 0.92,-70.97 -24.45,-107.28 -19.91,-28.5 -49.77,-45.65 -85.78,-50.64 -32.99,-154.81 -140.94,-95.06 -239.38,-180.96 -57.33,-49.99 -41.4,-68.4 -77.06,-61.2z"/>
   <path class="fil1" d="M1692.91 2911.46c153.31,-53.1 153.94,215.69 56.3,250.41 -145.86,51.85 -166.71,-212.16 -56.3,-250.41zm-63.68 -37.2l-1.52 -63.05 -139.4 -0.18 0 660.95 139.6 0.63 0.02 -258.33c36.82,27.18 38.76,48.11 96.67,57.66 259.11,42.77 306.35,-376.14 127.3,-457.73 -97.26,-44.31 -160.65,-1.97 -222.67,60.06z"/>
   <path class="fil1" d="M437.58 2743.32l298.74 2.3c-18.63,40.73 -215.72,292.48 -268.08,362.49 -56.79,75.96 -53.77,50.55 -53.77,151.14l509.63 2.89 0 -114.75 -315.52 -0.36c16.24,-32.72 219.92,-305.54 259.6,-360.84 55.94,-77.91 54.89,-52.5 54.89,-155.12l-485.52 0.65 0.02 111.59z"/>
   <path class="fil1" d="M3534.69 2820.87c-13.11,-14.49 3.27,-5.86 -18.9,-10.22l-146.6 0.45c-10.42,24.67 -118.26,191.83 -134.25,203.84l0 -423.56 -139.6 3.51 0.02 665.93 139.58 1.36 0.07 -220.35c43.48,36.91 116.89,203.61 154.2,220.21l156.89 -0.09 -170.98 -238.87c18.63,-28.27 144.34,-195.72 159.57,-202.23z"/>
   <path class="fil1" d="M2513.76 3240.76l1.36 -126.47c-80.41,28.45 -150.22,58.13 -238.04,20.58 -138.05,-59.07 -140.81,-306.44 -1.81,-373.16 93.03,-44.67 154.45,-13.82 239.13,16.53l0.83 -134.41c-93.59,-43.15 -258.33,-32.14 -345.02,24.87 -189.84,124.86 -206.07,436.64 -8.88,563.94 84.73,54.71 263.45,54.33 352.43,8.12z"/>
   <path class="fil1" d="M2854.24 3050.97c4.43,43.35 1.45,76.79 -33.01,106.27 -94.64,80.93 -221.42,-109.89 33.01,-106.27zm-231.57 -212.58l-0.54 101.62c45.59,-16.71 67.48,-39.46 123.4,-44.65 64.53,-5.97 105.73,2.33 110.18,73.5 -122.26,13.2 -290.65,16.6 -277,184.04 5.3,65 50.13,110.59 113.61,119.6 104.23,14.81 132.91,-44.42 160.18,-68.38l2.59 56.7 132.26 1.3c0,-92.69 19.01,-331.78 -35.01,-399.33 -73.75,-92.22 -234.73,-74.44 -329.68,-24.4z"/>
   <path class="fil1" d="M1245.93 3051.95c2.01,37.13 -0.76,80.61 -31.29,104.7 -82.98,65.45 -165.9,-46.17 -86.59,-86.72 24.98,-12.75 90.66,-20.65 117.88,-17.98zm-232.16 -215.94l-0.29 105.02c50.01,-22.03 67.22,-40.4 125.91,-45.74 61.85,-5.64 102.94,3.56 107.25,71.35 -119.42,29.19 -294.23,5.57 -276.76,187.42 6.51,67.51 48.99,110.81 116.02,118.91 92.4,11.16 104.37,-24.27 159.06,-69.18l0.78 58.27 132.53 -0.42c-0.02,-100.72 19.59,-319.14 -33.86,-396.85 -68.96,-100.27 -233.16,-66.25 -330.64,-28.76z"/>
   <path class="fil1" d="M3699.16 2991.4c19.03,-125.13 160.29,-142.48 165.19,-0.13l-165.19 0.13zm2.89 -179.55c-18.52,19.01 -85.91,33.93 -121.7,123.94 -84.44,212.27 79.81,425.53 372.58,306.24l-2.24 -97.95c-78.02,44.8 -245.46,59.39 -249.42,-67.8l292.64 0c0,-206.25 -60.26,-310.89 -291.86,-264.43z"/>
   <path class="fil1" d="M4047.48 3134.06l-0.83 114.95c93.97,44.69 300.78,39.59 339.83,-78.82 65.11,-197.42 -233.43,-164.65 -198.74,-250.97 30.04,-55.36 133.94,-10.04 178.07,3.15l0 -106.36c-64.84,-12.26 -89.34,-18.48 -158.48,-16.31 -66.37,16.95 -123.05,22.66 -151.79,93.99 -28.92,71.76 3.04,136.18 68.22,168.92 30.26,15.19 182.57,46.5 123.05,100.32 -41.89,37.87 -163.37,6.55 -199.34,-28.88z"/>
  </g>
 </g>
</svg>
