<?xml version="1.0" encoding="UTF-8"?>
<!DOCTYPE svg PUBLIC "-//W3C//DTD SVG 1.1//EN" "http://www.w3.org/Graphics/SVG/1.1/DTD/svg11.dtd">
<!-- Creator: CorelDRAW -->
<svg xmlns="http://www.w3.org/2000/svg" xml:space="preserve" width="42.7055mm" height="22.8999mm" version="1.1" style="shape-rendering:geometricPrecision; text-rendering:geometricPrecision; image-rendering:optimizeQuality; fill-rule:evenodd; clip-rule:evenodd"
viewBox="0 0 6591.01 3534.29"
 xmlns:xlink="http://www.w3.org/1999/xlink"
 xmlns:xodm="http://www.corel.com/coreldraw/odm/2003">
 <defs>
  <style type="text/css">
   <![CDATA[
    .fil1 {fill:#15803D}
    .fil0 {fill:#B3B3B3}
   ]]>
  </style>
 </defs>
 <g id="Camada_x0020_1">
  <metadata id="CorelCorpID_0Corel-Layer"/>
  <path class="fil0" d="M3063.18 1202.08c30.98,-6.81 72.8,-20.42 103.2,-19.52 34.4,1.02 67.11,17.55 100.81,20.94l-13.63 554.69c-22.53,5.29 -144.37,4.43 -167.81,-0.56l-22.58 -555.55zm397.93 530.78c-21.33,8.61 -125.8,26.14 -142.55,20.23l13.66 -550.92c96.51,-39.06 87.8,-44.45 197.52,-34.97l-68.63 565.66zm-661.66 -566.45c158.67,-14.06 100.83,9.17 198.55,34.77l23.68 555.13c-31.22,-1.93 -117.74,-12.42 -143.84,-22.83l-78.39 -567.08zm726.21 548.51l69.27 -554.92c24.35,-14.49 44.87,-24.97 69.31,-41.07 20.28,-13.33 51.07,-30.94 74.27,-37.01 1.2,140.91 -53.59,390.47 -100.38,532.8 -9.99,30.36 -9.46,46.9 -36.65,67 -17.7,13.09 -54.28,28.2 -75.81,33.2zm-951.9 -642.72c106.68,46.08 90.64,53.43 142.55,78.31 26.73,12.83 19.11,19.65 28.41,81.34 4.82,31.96 8.94,64.56 13,96.66 16.17,127.96 40.81,259.67 53.26,387.2 -19.26,-0.57 -60.13,-19.86 -77.25,-30.28 -37.23,-22.66 -30.7,-26.92 -43.88,-65.96 -44.73,-132.48 -101.82,-414.86 -116.09,-547.26zm6.65 -524.79c8.2,21.22 12.42,56.19 20.05,81.1 108.58,354.65 560.67,443.56 886.49,428.61l186.87 -17.18c0.79,1.47 -70.82,46.04 -77.96,50.33 -42.57,25.6 -62.77,16.84 -108.9,12.75 -96.85,-8.61 -155.19,51.92 -214.94,41.08 -37.81,-6.87 -64.47,-21.53 -105.61,-22.32 -38.8,-0.74 -71.13,12.62 -108.25,19.49 -46.1,8.52 -63.62,-5.53 -103.28,-21.85 -107.17,-44.11 -155.82,12.33 -224.05,-29.31 -28.35,-17.3 -46.25,-34.85 -78.5,-49.68 -28.55,-13.13 -60.73,-21.72 -78.54,-49.62 -18.26,-28.6 -37.49,-48.62 -54.85,-76.38 -39.09,-62.57 -55.51,-137.61 -41.66,-210.5 11.08,-58.35 48.38,-128.99 103.13,-156.53zm200.78 -285.03c109.76,-16.85 45.53,15.79 91.32,155.08 18.06,54.93 50.51,114.56 90.95,156.3 89.58,92.48 197.27,144.78 322.53,171.79 76.35,16.47 153.33,20.59 231.18,15.2 111.48,-7.7 164.62,-35.81 205.95,-40.53 77.97,-8.92 168.04,97.4 70.96,211.15 -29.59,34.66 -37.94,33.17 -81.64,40.61 -270.01,45.92 -595.12,45.44 -837.58,-99.07 -106.06,-63.22 -186.28,-154.17 -219.84,-274.5 -31.9,-114.44 -23.57,-313.03 126.17,-336.02zm262.43 -184.22c7.75,205.55 96.68,372.61 318.29,395.76 178.27,18.61 211.7,-54.37 295.72,31.24 32.92,33.52 48.34,87.63 45.22,133.84 -2.39,35.45 -16.16,30.1 -48.99,39.28 -23.71,6.64 -48.31,11.7 -72.58,15.79 -168.52,28.37 -433.84,-7.16 -553.3,-142.17 -36.44,-41.16 -50.27,-50.73 -77.04,-103.03 -40.28,-78.68 -57.15,-211.83 -1.03,-288.39 23.37,-31.89 57.63,-65.42 93.71,-82.31zm288.7 166.24c44.29,10.63 85.8,24.69 122.84,51.19 32.52,23.26 62.75,72.43 58.06,113.58 -90.35,18.69 -216.5,10.53 -291.2,-48.26 -69.33,-54.57 -113.51,-149.91 -114.21,-239.61 86.07,66.01 111.15,95.87 224.51,123.1zm-279.84 -241.92c-14.48,10.77 -42.5,22.75 -61.12,34.68 -51.53,33.01 -115.97,108.42 -129.35,169.54 -152.72,-23.92 -246.37,56.38 -276.71,202.29 -9.31,44.7 9.58,63.69 -35.47,86.8 -76.52,39.23 -130.54,141.73 -138.56,228.33 -6.24,67.35 9.26,139.04 41.58,198.46 15.54,28.6 36.76,48.89 50.27,71.81 10.29,17.47 14.21,81.4 17.07,105.35 16.51,138.32 41.49,276.11 77.17,410.78 44.16,166.7 38.03,217.07 216.98,268.21 132.99,38.01 305.18,45.61 442.88,38.54 106.97,-5.49 308.83,-24.46 391.01,-97.86 45.28,-40.45 59.93,-112.23 74.88,-169.4 17.39,-66.55 30.91,-131.76 43.48,-199.33 9.06,-71.43 20.54,-139.33 27.29,-211.69 3.32,-35.61 2.82,-77.96 7.5,-111.85 5.7,-41.21 25.71,-42.3 47.17,-71.83 37.84,-52.09 62.26,-117.74 38.29,-181.78 -23.37,-62.41 -68.05,-88.17 -128.05,-108.73 5.31,-71.78 1.51,-117.53 -40.47,-177.61 -32.97,-47.17 -82.37,-75.58 -141.99,-83.85 -54.64,-256.28 -233.33,-157.36 -396.32,-299.54 -94.89,-82.79 -68.53,-113.24 -127.53,-101.32z"/>
  <path class="fil1" d="M2116.46 2605.32c253.76,-87.91 254.82,357.09 93.19,414.55 -241.47,85.84 -275.98,-351.21 -93.19,-414.55zm-105.44 -61.56l-2.53 -104.39 -230.76 -0.29 0 1094.2 231.09 1.02 0.06 -427.65c60.95,44.99 64.17,79.65 160.03,95.47 428.95,70.79 507.15,-622.69 210.75,-757.76 -161,-73.37 -265.95,-3.26 -368.63,99.41z"/>
  <path class="fil1" d="M38.29 2326.99l494.56 3.81c-30.84,67.43 -357.1,484.17 -443.78,600.08 -94.02,125.77 -89.02,83.7 -89.02,250.21l843.68 4.77 0 -189.94 -522.37 -0.59c26.9,-54.17 364.1,-505.84 429.8,-597.34 92.59,-128.98 90.84,-86.92 90.84,-256.82l-803.75 1.06 0.05 184.76z"/>
  <path class="fil1" d="M5165.49 2455.37c-21.72,-24 5.37,-9.69 -31.28,-16.93l-242.72 0.74c-17.25,40.84 -195.74,317.56 -222.24,337.47l-0.02 -701.2 -231.07 5.8 0.02 1102.46 231.09 2.25 0.11 -364.77c71.98,61.09 193.52,337.06 255.29,364.56l259.72 -0.19 -283.05 -395.44c30.85,-46.79 238.94,-324 264.18,-334.76z"/>
  <path class="fil1" d="M3475.35 3150.5l2.25 -209.4c-133.13,47.13 -248.7,96.26 -394.05,34.08 -228.54,-97.77 -233.13,-507.3 -3.02,-617.76 154,-73.91 255.69,-22.89 395.89,27.38l1.36 -222.52c-154.91,-71.41 -427.65,-53.18 -571.17,41.21 -314.24,206.67 -341.13,722.82 -14.68,933.57 140.26,90.55 436.09,89.93 583.42,13.46z"/>
  <path class="fil1" d="M4038.98 2836.27c7.35,71.78 2.41,127.16 -54.65,175.94 -156.67,133.96 -366.55,-181.92 54.65,-175.94zm-383.36 -351.92l-0.88 168.24c75.46,-27.69 111.71,-65.33 204.28,-73.9 106.85,-9.89 175.06,3.81 182.43,121.65 -202.43,21.85 -481.16,27.49 -458.56,304.69 8.77,107.6 82.99,183.07 188.06,198 172.56,24.49 220.02,-73.56 265.17,-113.21l4.31 93.87 218.93 2.16c0,-153.46 31.5,-549.28 -57.92,-661.1 -122.1,-152.69 -388.6,-123.24 -545.8,-40.41z"/>
  <path class="fil1" d="M1376.48 2837.92c3.33,61.47 -1.23,133.45 -51.8,173.32 -137.37,108.34 -274.64,-76.43 -143.35,-143.53 41.35,-21.13 150.08,-34.2 195.14,-29.79zm-384.33 -357.49l-0.49 173.86c82.82,-36.5 111.31,-66.89 208.46,-75.75 102.37,-9.32 170.4,5.9 177.55,118.13 -197.7,48.32 -487.09,9.21 -458.15,310.28 10.74,111.75 81.07,183.43 192.06,196.86 152.98,18.47 172.78,-40.17 263.31,-114.53l1.3 96.48 219.39 -0.71c-0.02,-166.75 32.46,-528.34 -56.04,-656.98 -114.19,-166.02 -385.98,-109.69 -547.38,-47.63z"/>
  <path class="fil1" d="M5437.75 2737.67c31.52,-207.12 265.35,-235.86 273.47,-0.23l-273.47 0.23zm4.75 -297.21c-30.65,31.45 -142.22,56.15 -201.47,205.16 -139.75,351.42 132.14,704.47 616.79,506.98l-3.7 -162.15c-129.15,74.16 -406.34,98.3 -412.9,-112.26l484.46 0c0,-341.42 -99.78,-514.65 -483.18,-437.73z"/>
  <path class="fil1" d="M6014.38 2973.85l-1.39 190.3c155.57,74 497.92,65.53 562.59,-130.51 107.8,-326.81 -386.44,-272.56 -329.01,-415.44 49.73,-91.66 221.74,-16.64 294.8,5.23l0 -176.1c-107.34,-20.28 -147.9,-30.57 -262.37,-26.98 -109.84,28.07 -203.69,37.5 -251.28,155.57 -47.88,118.79 5.05,225.45 112.96,279.66 50.08,25.14 302.22,77 203.68,166.1 -69.34,62.68 -270.43,10.83 -329.97,-47.83z"/>
 </g>
</svg>
