<?xml version="1.0" encoding="UTF-8"?>
<!DOCTYPE svg PUBLIC "-//W3C//DTD SVG 1.1//EN" "http://www.w3.org/Graphics/SVG/1.1/DTD/svg11.dtd">
<!-- Creator: CorelDRAW -->
<svg xmlns="http://www.w3.org/2000/svg" xml:space="preserve" width="647px" height="144px" version="1.1" style="shape-rendering:geometricPrecision; text-rendering:geometricPrecision; image-rendering:optimizeQuality; fill-rule:evenodd; clip-rule:evenodd"
viewBox="0 0 1027.76 229.28"
 xmlns:xlink="http://www.w3.org/1999/xlink"
 xmlns:xodm="http://www.corel.com/coreldraw/odm/2003">
 <defs>
  <style type="text/css">
   <![CDATA[
    .fil1 {fill:#22C55E}
    .fil0 {fill:#B3B3B3}
   ]]>
  </style>
 </defs>
 <g id="Camada_x0020_1">
  <metadata id="CorelCorpID_0Corel-Layer"/>
  <path class="fil0" d="M79.38 146.08c3.77,-0.83 8.85,-2.48 12.55,-2.37 4.18,0.12 8.15,2.13 12.25,2.54l-1.66 67.41c-2.74,0.64 -17.54,0.54 -20.39,-0.07l-2.75 -67.51zm48.36 64.5c-2.59,1.05 -15.29,3.18 -17.32,2.46l1.66 -66.95c11.73,-4.75 10.67,-5.4 24,-4.25l-8.34 68.74zm-80.4 -68.84c19.28,-1.7 12.25,1.12 24.12,4.23l2.88 67.46c-3.79,-0.23 -14.31,-1.51 -17.48,-2.77l-9.52 -68.92zm88.25 66.66l8.41 -67.43c2.96,-1.76 5.46,-3.04 8.43,-4.99 2.46,-1.62 6.2,-3.76 9.02,-4.5 0.15,17.12 -6.51,47.45 -12.2,64.74 -1.21,3.69 -1.15,5.7 -4.45,8.15 -2.15,1.59 -6.6,3.42 -9.21,4.03zm-115.68 -78.1c12.96,5.6 11.02,6.49 17.32,9.51 3.25,1.56 2.32,2.39 3.46,9.89 0.58,3.88 1.08,7.84 1.57,11.74 1.97,15.55 4.96,31.56 6.48,47.06 -2.34,-0.07 -7.31,-2.42 -9.39,-3.68 -4.52,-2.76 -3.73,-3.27 -5.33,-8.02 -5.44,-16.1 -12.37,-50.41 -14.11,-66.5zm0.81 -63.78c0.99,2.58 1.51,6.83 2.43,9.86 13.2,43.1 68.14,53.9 107.73,52.08l22.71 -2.08c0.1,0.18 -8.61,5.59 -9.47,6.11 -5.18,3.11 -7.63,2.05 -13.24,1.55 -11.76,-1.04 -18.85,6.31 -26.12,4.99 -4.59,-0.83 -7.83,-2.61 -12.83,-2.71 -4.72,-0.09 -8.64,1.54 -13.16,2.37 -5.6,1.04 -7.73,-0.67 -12.55,-2.65 -13.02,-5.36 -18.93,1.49 -27.22,-3.57 -3.45,-2.1 -5.62,-4.23 -9.54,-6.03 -3.47,-1.6 -7.38,-2.64 -9.55,-6.03 -2.21,-3.48 -4.55,-5.91 -6.66,-9.28 -4.75,-7.61 -6.75,-16.73 -5.06,-25.58 1.34,-7.1 5.88,-15.68 12.53,-19.03zm24.4 -34.63c13.34,-2.05 5.53,1.92 11.09,18.84 2.2,6.68 6.14,13.92 11.06,19 10.88,11.23 23.97,17.59 39.19,20.87 9.28,2 18.63,2.5 28.09,1.85 13.55,-0.94 20.01,-4.35 25.03,-4.93 9.48,-1.08 20.42,11.84 8.62,25.66 -3.59,4.22 -4.61,4.03 -9.92,4.94 -32.81,5.58 -72.32,5.52 -101.78,-12.04 -12.89,-7.68 -22.64,-18.74 -26.72,-33.36 -3.87,-13.91 -2.86,-38.04 15.34,-40.83zm31.89 -22.39c0.94,24.98 11.75,45.28 38.68,48.09 21.66,2.27 25.72,-6.6 35.93,3.8 4,4.07 5.88,10.65 5.5,16.27 -0.29,4.3 -1.97,3.65 -5.95,4.77 -2.89,0.8 -5.87,1.42 -8.82,1.92 -20.48,3.44 -52.73,-0.87 -67.24,-17.28 -4.43,-5 -6.11,-6.16 -9.36,-12.52 -4.9,-9.56 -6.95,-25.74 -0.13,-35.05 2.84,-3.87 7,-7.95 11.39,-10zm35.08 20.2c5.38,1.29 10.43,3 14.93,6.22 3.95,2.83 7.62,8.81 7.05,13.81 -10.98,2.27 -26.31,1.27 -35.38,-5.87 -8.43,-6.63 -13.8,-18.22 -13.88,-29.12 10.46,8.02 13.51,11.65 27.28,14.96zm-34.01 -29.4c-1.75,1.31 -5.16,2.77 -7.42,4.22 -6.26,4.01 -14.09,13.17 -15.72,20.6 -18.56,-2.91 -29.94,6.85 -33.63,24.58 -1.13,5.43 1.17,7.74 -4.31,10.55 -9.3,4.77 -15.86,17.22 -16.83,27.75 -0.76,8.18 1.12,16.89 5.05,24.11 1.89,3.48 4.47,5.95 6.11,8.73 1.25,2.12 1.72,9.89 2.07,12.8 2.01,16.81 5.04,33.56 9.38,49.92 5.36,20.26 4.62,26.38 26.37,32.59 16.16,4.62 37.08,5.55 53.82,4.69 12.99,-0.67 37.52,-2.98 47.51,-11.9 5.5,-4.91 7.28,-13.63 9.1,-20.58 2.11,-8.09 3.76,-16.01 5.28,-24.22 1.11,-8.68 2.5,-16.94 3.32,-25.73 0.4,-4.32 0.34,-9.47 0.91,-13.59 0.69,-5.01 3.13,-5.14 5.73,-8.73 4.6,-6.33 7.57,-14.31 4.66,-22.09 -2.84,-7.58 -8.27,-10.71 -15.56,-13.21 0.64,-8.72 0.18,-14.28 -4.92,-21.58 -4.01,-5.74 -10.01,-9.19 -17.26,-10.19 -6.64,-31.15 -28.35,-19.13 -48.16,-36.4 -11.53,-10.06 -8.33,-13.76 -15.5,-12.32z"/>
  <path class="fil1" d="M484 116.39c30.84,-10.68 30.97,43.4 11.33,50.38 -29.35,10.43 -33.54,-42.68 -11.33,-50.38zm-12.81 -7.48l-0.31 -12.69 -28.04 -0.03 0 132.97 28.08 0.12 0.01 -51.97c7.41,5.47 7.8,9.68 19.45,11.6 52.12,8.61 61.63,-75.67 25.61,-92.08 -19.57,-8.92 -32.32,-0.4 -44.8,12.08z"/>
  <path class="fil1" d="M231.46 82.57l60.1 0.46c-3.75,8.2 -43.39,58.84 -53.93,72.92 -11.42,15.29 -10.81,10.17 -10.81,30.41l102.52 0.58 0 -23.08 -63.48 -0.07c3.27,-6.59 44.25,-61.47 52.23,-72.59 11.25,-15.68 11.04,-10.57 11.04,-31.21l-97.67 0.13 0 22.45z"/>
  <path class="fil1" d="M854.52 98.17c-2.64,-2.92 0.66,-1.18 -3.8,-2.06l-29.5 0.09c-2.09,4.96 -23.78,38.59 -27,41.01l0 -85.21 -28.08 0.71 0 133.97 28.08 0.27 0.01 -44.33c8.75,7.43 23.52,40.96 31.03,44.31l31.56 -0.03 -34.4 -48.05c3.75,-5.69 29.04,-39.37 32.1,-40.68z"/>
  <path class="fil1" d="M649.14 182.64l0.27 -25.44c-16.18,5.72 -30.22,11.69 -47.89,4.14 -27.77,-11.88 -28.32,-61.65 -0.36,-75.07 18.71,-8.99 31.07,-2.79 48.11,3.32l0.16 -27.04c-18.82,-8.68 -51.97,-6.46 -69.41,5.01 -38.19,25.11 -41.45,87.84 -1.78,113.45 17.04,11 52.99,10.93 70.9,1.63z"/>
  <path class="fil1" d="M717.63 144.46c0.89,8.72 0.29,15.45 -6.64,21.38 -19.04,16.28 -44.54,-22.11 6.64,-21.38zm-46.59 -42.77l-0.1 20.45c9.17,-3.37 13.57,-7.94 24.82,-8.98 12.99,-1.21 21.28,0.46 22.17,14.78 -24.6,2.66 -58.47,3.34 -55.73,37.03 1.07,13.07 10.09,22.24 22.86,24.06 20.97,2.97 26.73,-8.94 32.22,-13.76l0.52 11.41 26.61 0.26c0,-18.65 3.83,-66.75 -7.04,-80.34 -14.84,-18.55 -47.22,-14.97 -66.33,-4.91z"/>
  <path class="fil1" d="M394.08 144.66c0.41,7.47 -0.15,16.22 -6.29,21.06 -16.7,13.17 -33.38,-9.29 -17.42,-17.44 5.02,-2.57 18.23,-4.16 23.71,-3.62zm-46.7 -43.44l-0.06 21.12c10.06,-4.43 13.52,-8.13 25.33,-9.2 12.44,-1.13 20.71,0.71 21.58,14.35 -24.03,5.88 -59.2,1.12 -55.68,37.71 1.31,13.58 9.85,22.29 23.34,23.92 18.59,2.25 21,-4.88 32,-13.92l0.16 11.73 26.66 -0.09c-0.01,-20.26 3.94,-64.2 -6.81,-79.84 -13.88,-20.17 -46.91,-13.33 -66.52,-5.78z"/>
  <path class="fil1" d="M887.61 132.47c3.83,-25.16 32.24,-28.66 33.23,-0.02l-33.23 0.02zm0.58 -36.11c-3.73,3.82 -17.29,6.82 -24.49,24.93 -16.98,42.7 16.06,85.61 74.96,61.61l-0.45 -19.71c-15.7,9.01 -49.38,11.95 -50.18,-13.64l58.87 0c0,-41.49 -12.12,-62.54 -58.71,-53.19z"/>
  <path class="fil1" d="M957.68 161.18l-0.17 23.12c18.91,8.99 60.51,7.96 68.37,-15.86 13.1,-39.71 -46.96,-33.12 -39.98,-50.48 6.04,-11.14 26.94,-2.03 35.82,0.63l0 -21.4c-13.04,-2.46 -17.97,-3.71 -31.88,-3.28 -13.35,3.42 -24.76,4.56 -30.54,18.91 -5.82,14.43 0.61,27.4 13.73,33.98 6.08,3.06 36.72,9.36 24.75,20.19 -8.43,7.61 -32.86,1.31 -40.1,-5.81z"/>
 </g>
</svg>
